Two small town Texas cops go undercover to catch a major drug dealer and are sucked into the drug culture, compromising their assignment.


Cast

Jason Patric ... Jim Raynor
Jennifer Jason Leigh ... Kristen Cates
Sam Elliott ... Dodd
Max Perlich ... Walker
Gregg Allman ... Gaines
Tony Frank ... Nettle
William Sadler ... Monroe
Special K. McCray ... Willie Red
Dennis Letts ... Senior District Attorney
Dennis Burkley ... Motorcycle Guy
Glenn Wilson ... Motorcycle Guy
Jimmy Ray Pickens ... Man in Disco (as Jimmy Pickens)
Barbara Lasater ... Yellow Rose Bartender
Toni Pilgreen ... Driller's Waitress
Merrill Connally ... Defense Attorney

General Info
General
Complete name : Rush 1991 DVDRip Xvid BigPerm LKRG\R_LKRG.avi
Format : AVI
Format/Info : Audio Video Interleave
Format profile : OpenDML
File size : 1.25 GiB
Duration : 1h 59mn
Overall bit rate : 1 488 Kbps

Video
ID : 0
Format : MPEG-4 Visual
Format profile : Advanced Simple@L5
Format settings, BVOP : Yes
Format settings, QPel : No
Format settings, GMC : No warppoints
Format settings, Matrix : Default (H.263)
Codec ID : XVID
Codec ID/Hint : XviD
Duration : 1h 59mn
Bit rate : 58.3 Kbps
Width : 704 pixels
Height : 396 pixels
Display aspect ratio : 16:9
Frame rate : 23.976 fps
Color space : YUV
Chroma subsampling : 4:2:0
Bit depth : 8 bits
Scan type : Progressive
Compression mode : Lossy
Bits/(Pixel*Frame) : 0.009
Stream size : 50.0 MiB (4%)
Writing library : XviD 1.2.1 (UTC 2008-12-04)

Audio
ID : 1
Format : AC-3
Format/Info : Audio Coding 3
Codec ID : 2000
Duration : 1h 59mn
Bit rate mode : Constant
Bit rate : 448 Kbps
Channel(s) : 6 channels
Sampling rate : 48.0 KHz
Bit depth : 16 bits
Compression mode : Lossy
Stream size : 384 MiB (30%)
Alignment : Aligned on interleaves
Language : English
 
http://www.videodetective.com/movie_trailer/RUSH/trailer/P00004059.htm


Screens
 
http://leetleech.org/images/18844326481942109217.png 
http://leetleech.org/images/58649396419342485861.png 
http://leetleech.org/images/27035191590602868516.png 
http://leetleech.org/images/80021702809525228346.png
  
http://www.imdb.com/title/tt0102820/ 

Thanks to BigPerm